<?xml version="1.0" encoding="utf-8" standalone="no"?>
<!DOCTYPE svg PUBLIC "-//W3C//DTD SVG 1.1//EN"
  "http://www.w3.org/Graphics/SVG/1.1/DTD/svg11.dtd">
<!-- Created with matplotlib (https://matplotlib.org/) -->
<svg height="216pt" version="1.1" viewBox="0 0 720 216" width="720pt" xmlns="http://www.w3.org/2000/svg" xmlns:xlink="http://www.w3.org/1999/xlink">
 <defs>
  <style type="text/css">
*{stroke-linecap:butt;stroke-linejoin:round;}
  </style>
 </defs>
 <g id="figure_1">
  <g id="patch_1">
   <path d="M 0 216 
L 720 216 
L 720 0 
L 0 0 
z
" style="fill:#ffffff;"/>
  </g>
  <g id="axes_1">
   <g id="patch_2">
    <path d="M 33.73 89.335 
L 709.2 89.335 
L 709.2 14.76 
L 33.73 14.76 
z
" style="fill:#ffffff;"/>
   </g>
   <g id="PatchCollection_1">
    <path clip-path="url(#p5f3f3eeb1b)" d="M 33.73 89.335 
L 47.2394 89.335 
L 47.2394 14.76 
L 33.73 14.76 
z
" style="fill:#a6df99;"/>
    <path clip-path="url(#p5f3f3eeb1b)" d="M 47.2394 89.335 
L 60.7488 89.335 
L 60.7488 14.76 
L 47.2394 14.76 
z
" style="fill:#a6df99;"/>
    <path clip-path="url(#p5f3f3eeb1b)" d="M 60.7488 89.335 
L 74.2582 89.335 
L 74.2582 14.76 
L 60.7488 14.76 
z
" style="fill:#a6df99;"/>
    <path clip-path="url(#p5f3f3eeb1b)" d="M 74.2582 89.335 
L 87.7676 89.335 
L 87.7676 14.76 
L 74.2582 14.76 
z
" style="fill:#a6df99;"/>
    <path clip-path="url(#p5f3f3eeb1b)" d="M 87.7676 89.335 
L 101.277 89.335 
L 101.277 14.76 
L 87.7676 14.76 
z
" style="fill:#a6df99;"/>
    <path clip-path="url(#p5f3f3eeb1b)" d="M 101.277 89.335 
L 114.7864 89.335 
L 114.7864 14.76 
L 101.277 14.76 
z
" style="fill:#a6df99;"/>
    <path clip-path="url(#p5f3f3eeb1b)" d="M 114.7864 89.335 
L 128.2958 89.335 
L 128.2958 14.76 
L 114.7864 14.76 
z
" style="fill:#a6df99;"/>
    <path clip-path="url(#p5f3f3eeb1b)" d="M 128.2958 89.335 
L 141.8052 89.335 
L 141.8052 14.76 
L 128.2958 14.76 
z
" style="fill:#a6df99;"/>
    <path clip-path="url(#p5f3f3eeb1b)" d="M 141.8052 89.335 
L 155.3146 89.335 
L 155.3146 14.76 
L 141.8052 14.76 
z
" style="fill:#a6df99;"/>
    <path clip-path="url(#p5f3f3eeb1b)" d="M 155.3146 89.335 
L 168.824 89.335 
L 168.824 14.76 
L 155.3146 14.76 
z
" style="fill:#85bc9e;"/>
    <path clip-path="url(#p5f3f3eeb1b)" d="M 168.824 89.335 
L 182.3334 89.335 
L 182.3334 14.76 
L 168.824 14.76 
z
" style="fill:#85bc9e;"/>
    <path clip-path="url(#p5f3f3eeb1b)" d="M 182.3334 89.335 
L 195.8428 89.335 
L 195.8428 14.76 
L 182.3334 14.76 
z
" style="fill:#85bc9e;"/>
    <path clip-path="url(#p5f3f3eeb1b)" d="M 195.8428 89.335 
L 209.3522 89.335 
L 209.3522 14.76 
L 195.8428 14.76 
z
" style="fill:#85bc9e;"/>
    <path clip-path="url(#p5f3f3eeb1b)" d="M 209.3522 89.335 
L 222.8616 89.335 
L 222.8616 14.76 
L 209.3522 14.76 
z
" style="fill:#85bc9e;"/>
    <path clip-path="url(#p5f3f3eeb1b)" d="M 222.8616 89.335 
L 236.371 89.335 
L 236.371 14.76 
L 222.8616 14.76 
z
" style="fill:#85bc9e;"/>
    <path clip-path="url(#p5f3f3eeb1b)" d="M 236.371 89.335 
L 249.8804 89.335 
L 249.8804 14.76 
L 236.371 14.76 
z
" style="fill:#dda4d2;"/>
    <path clip-path="url(#p5f3f3eeb1b)" d="M 249.8804 89.335 
L 263.3898 89.335 
L 263.3898 14.76 
L 249.8804 14.76 
z
" style="fill:#dda4d2;"/>
    <path clip-path="url(#p5f3f3eeb1b)" d="M 263.3898 89.335 
L 276.8992 89.335 
L 276.8992 14.76 
L 263.3898 14.76 
z
" style="fill:#dda4d2;"/>
    <path clip-path="url(#p5f3f3eeb1b)" d="M 276.8992 89.335 
L 290.4086 89.335 
L 290.4086 20.842894 
L 276.8992 20.842894 
z
" style="fill:#dda4d2;"/>
    <path clip-path="url(#p5f3f3eeb1b)" d="M 276.8992 20.842894 
L 290.4086 20.842894 
L 290.4086 14.76 
L 276.8992 14.76 
z
" style="fill:#a3a4bc;"/>
    <path clip-path="url(#p5f3f3eeb1b)" d="M 290.4086 89.335 
L 303.918 89.335 
L 303.918 14.76 
L 290.4086 14.76 
z
" style="fill:#dda4d2;"/>
    <path clip-path="url(#p5f3f3eeb1b)" d="M 303.918 89.335 
L 317.4274 89.335 
L 317.4274 14.76 
L 303.918 14.76 
z
" style="fill:#dda4d2;"/>
    <path clip-path="url(#p5f3f3eeb1b)" d="M 317.4274 89.335 
L 330.9368 89.335 
L 330.9368 14.76 
L 317.4274 14.76 
z
" style="fill:#d1cb91;"/>
    <path clip-path="url(#p5f3f3eeb1b)" d="M 330.9368 89.335 
L 344.4462 89.335 
L 344.4462 14.76 
L 330.9368 14.76 
z
" style="fill:#d1cb91;"/>
    <path clip-path="url(#p5f3f3eeb1b)" d="M 344.4462 89.335 
L 357.9556 89.335 
L 357.9556 14.76 
L 344.4462 14.76 
z
" style="fill:#d1cb91;"/>
    <path clip-path="url(#p5f3f3eeb1b)" d="M 357.9556 89.335 
L 371.465 89.335 
L 371.465 14.76 
L 357.9556 14.76 
z
" style="fill:#d1cb91;"/>
    <path clip-path="url(#p5f3f3eeb1b)" d="M 371.465 89.335 
L 384.9744 89.335 
L 384.9744 14.76 
L 371.465 14.76 
z
" style="fill:#f885c6;"/>
   </g>
   <g id="matplotlib.axis_1">
    <g id="xtick_1">
     <g id="line2d_1">
      <defs>
       <path d="M 0 0 
L 0 3.5 
" id="m19a19ba891" style="stroke:#000000;stroke-width:0.8;"/>
      </defs>
      <g>
       <use style="stroke:#000000;stroke-width:0.8;" x="40.4847" xlink:href="#m19a19ba891" y="89.335"/>
      </g>
     </g>
     <g id="text_1">
      <!-- ITS001 -->
      <defs>
       <path d="M 9.8125 72.90625 
L 19.671875 72.90625 
L 19.671875 0 
L 9.8125 0 
z
" id="DejaVuSans-73"/>
       <path d="M -0.296875 72.90625 
L 61.375 72.90625 
L 61.375 64.59375 
L 35.5 64.59375 
L 35.5 0 
L 25.59375 0 
L 25.59375 64.59375 
L -0.296875 64.59375 
z
" id="DejaVuSans-84"/>
       <path d="M 53.515625 70.515625 
L 53.515625 60.890625 
Q 47.90625 63.578125 42.921875 64.890625 
Q 37.9375 66.21875 33.296875 66.21875 
Q 25.25 66.21875 20.875 63.09375 
Q 16.5 59.96875 16.5 54.203125 
Q 16.5 49.359375 19.40625 46.890625 
Q 22.3125 44.4375 30.421875 42.921875 
L 36.375 41.703125 
Q 47.40625 39.59375 52.65625 34.296875 
Q 57.90625 29 57.90625 20.125 
Q 57.90625 9.515625 50.796875 4.046875 
Q 43.703125 -1.421875 29.984375 -1.421875 
Q 24.8125 -1.421875 18.96875 -0.25 
Q 13.140625 0.921875 6.890625 3.21875 
L 6.890625 13.375 
Q 12.890625 10.015625 18.65625 8.296875 
Q 24.421875 6.59375 29.984375 6.59375 
Q 38.421875 6.59375 43.015625 9.90625 
Q 47.609375 13.234375 47.609375 19.390625 
Q 47.609375 24.75 44.3125 27.78125 
Q 41.015625 30.8125 33.5 32.328125 
L 27.484375 33.5 
Q 16.453125 35.6875 11.515625 40.375 
Q 6.59375 45.0625 6.59375 53.421875 
Q 6.59375 63.09375 13.40625 68.65625 
Q 20.21875 74.21875 32.171875 74.21875 
Q 37.3125 74.21875 42.625 73.28125 
Q 47.953125 72.359375 53.515625 70.515625 
z
" id="DejaVuSans-83"/>
       <path d="M 31.78125 66.40625 
Q 24.171875 66.40625 20.328125 58.90625 
Q 16.5 51.421875 16.5 36.375 
Q 16.5 21.390625 20.328125 13.890625 
Q 24.171875 6.390625 31.78125 6.390625 
Q 39.453125 6.390625 43.28125 13.890625 
Q 47.125 21.390625 47.125 36.375 
Q 47.125 51.421875 43.28125 58.90625 
Q 39.453125 66.40625 31.78125 66.40625 
z
M 31.78125 74.21875 
Q 44.046875 74.21875 50.515625 64.515625 
Q 56.984375 54.828125 56.984375 36.375 
Q 56.984375 17.96875 50.515625 8.265625 
Q 44.046875 -1.421875 31.78125 -1.421875 
Q 19.53125 -1.421875 13.0625 8.265625 
Q 6.59375 17.96875 6.59375 36.375 
Q 6.59375 54.828125 13.0625 64.515625 
Q 19.53125 74.21875 31.78125 74.21875 
z
" id="DejaVuSans-48"/>
       <path d="M 12.40625 8.296875 
L 28.515625 8.296875 
L 28.515625 63.921875 
L 10.984375 60.40625 
L 10.984375 69.390625 
L 28.421875 72.90625 
L 38.28125 72.90625 
L 38.28125 8.296875 
L 54.390625 8.296875 
L 54.390625 0 
L 12.40625 0 
z
" id="DejaVuSans-49"/>
      </defs>
      <g transform="translate(42.140325 117.03125)rotate(-90)scale(0.06 -0.06)">
       <use xlink:href="#DejaVuSans-73"/>
       <use x="29.492188" xlink:href="#DejaVuSans-84"/>
       <use x="90.576172" xlink:href="#DejaVuSans-83"/>
       <use x="154.052734" xlink:href="#DejaVuSans-48"/>
       <use x="217.675781" xlink:href="#DejaVuSans-48"/>
       <use x="281.298828" xlink:href="#DejaVuSans-49"/>
      </g>
     </g>
    </g>
    <g id="xtick_2">
     <g id="line2d_2">
      <g>
       <use style="stroke:#000000;stroke-width:0.8;" x="53.9941" xlink:href="#m19a19ba891" y="89.335"/>
      </g>
     </g>
     <g id="text_2">
      <!-- ITS002 -->
      <defs>
       <path d="M 19.1875 8.296875 
L 53.609375 8.296875 
L 53.609375 0 
L 7.328125 0 
L 7.328125 8.296875 
Q 12.9375 14.109375 22.625 23.890625 
Q 32.328125 33.6875 34.8125 36.53125 
Q 39.546875 41.84375 41.421875 45.53125 
Q 43.3125 49.21875 43.3125 52.78125 
Q 43.3125 58.59375 39.234375 62.25 
Q 35.15625 65.921875 28.609375 65.921875 
Q 23.96875 65.921875 18.8125 64.3125 
Q 13.671875 62.703125 7.8125 59.421875 
L 7.8125 69.390625 
Q 13.765625 71.78125 18.9375 73 
Q 24.125 74.21875 28.421875 74.21875 
Q 39.75 74.21875 46.484375 68.546875 
Q 53.21875 62.890625 53.21875 53.421875 
Q 53.21875 48.921875 51.53125 44.890625 
Q 49.859375 40.875 45.40625 35.40625 
Q 44.1875 33.984375 37.640625 27.21875 
Q 31.109375 20.453125 19.1875 8.296875 
z
" id="DejaVuSans-50"/>
      </defs>
      <g transform="translate(55.649725 117.03125)rotate(-90)scale(0.06 -0.06)">
       <use xlink:href="#DejaVuSans-73"/>
       <use x="29.492188" xlink:href="#DejaVuSans-84"/>
       <use x="90.576172" xlink:href="#DejaVuSans-83"/>
       <use x="154.052734" xlink:href="#DejaVuSans-48"/>
       <use x="217.675781" xlink:href="#DejaVuSans-48"/>
       <use x="281.298828" xlink:href="#DejaVuSans-50"/>
      </g>
     </g>
    </g>
    <g id="xtick_3">
     <g id="line2d_3">
      <g>
       <use style="stroke:#000000;stroke-width:0.8;" x="67.5035" xlink:href="#m19a19ba891" y="89.335"/>
      </g>
     </g>
     <g id="text_3">
      <!-- ITS010 -->
      <g transform="translate(69.159125 117.03125)rotate(-90)scale(0.06 -0.06)">
       <use xlink:href="#DejaVuSans-73"/>
       <use x="29.492188" xlink:href="#DejaVuSans-84"/>
       <use x="90.576172" xlink:href="#DejaVuSans-83"/>
       <use x="154.052734" xlink:href="#DejaVuSans-48"/>
       <use x="217.675781" xlink:href="#DejaVuSans-49"/>
       <use x="281.298828" xlink:href="#DejaVuSans-48"/>
      </g>
     </g>
    </g>
    <g id="xtick_4">
     <g id="line2d_4">
      <g>
       <use style="stroke:#000000;stroke-width:0.8;" x="81.0129" xlink:href="#m19a19ba891" y="89.335"/>
      </g>
     </g>
     <g id="text_4">
      <!-- ITS024 -->
      <defs>
       <path d="M 37.796875 64.3125 
L 12.890625 25.390625 
L 37.796875 25.390625 
z
M 35.203125 72.90625 
L 47.609375 72.90625 
L 47.609375 25.390625 
L 58.015625 25.390625 
L 58.015625 17.1875 
L 47.609375 17.1875 
L 47.609375 0 
L 37.796875 0 
L 37.796875 17.1875 
L 4.890625 17.1875 
L 4.890625 26.703125 
z
" id="DejaVuSans-52"/>
      </defs>
      <g transform="translate(82.668525 117.03125)rotate(-90)scale(0.06 -0.06)">
       <use xlink:href="#DejaVuSans-73"/>
       <use x="29.492188" xlink:href="#DejaVuSans-84"/>
       <use x="90.576172" xlink:href="#DejaVuSans-83"/>
       <use x="154.052734" xlink:href="#DejaVuSans-48"/>
       <use x="217.675781" xlink:href="#DejaVuSans-50"/>
       <use x="281.298828" xlink:href="#DejaVuSans-52"/>
      </g>
     </g>
    </g>
    <g id="xtick_5">
     <g id="line2d_5">
      <g>
       <use style="stroke:#000000;stroke-width:0.8;" x="94.5223" xlink:href="#m19a19ba891" y="89.335"/>
      </g>
     </g>
     <g id="text_5">
      <!-- ITS004 -->
      <g transform="translate(96.177925 117.03125)rotate(-90)scale(0.06 -0.06)">
       <use xlink:href="#DejaVuSans-73"/>
       <use x="29.492188" xlink:href="#DejaVuSans-84"/>
       <use x="90.576172" xlink:href="#DejaVuSans-83"/>
       <use x="154.052734" xlink:href="#DejaVuSans-48"/>
       <use x="217.675781" xlink:href="#DejaVuSans-48"/>
       <use x="281.298828" xlink:href="#DejaVuSans-52"/>
      </g>
     </g>
    </g>
    <g id="xtick_6">
     <g id="line2d_6">
      <g>
       <use style="stroke:#000000;stroke-width:0.8;" x="108.0317" xlink:href="#m19a19ba891" y="89.335"/>
      </g>
     </g>
     <g id="text_6">
      <!-- ITS005 -->
      <defs>
       <path d="M 10.796875 72.90625 
L 49.515625 72.90625 
L 49.515625 64.59375 
L 19.828125 64.59375 
L 19.828125 46.734375 
Q 21.96875 47.46875 24.109375 47.828125 
Q 26.265625 48.1875 28.421875 48.1875 
Q 40.625 48.1875 47.75 41.5 
Q 54.890625 34.8125 54.890625 23.390625 
Q 54.890625 11.625 47.5625 5.09375 
Q 40.234375 -1.421875 26.90625 -1.421875 
Q 22.3125 -1.421875 17.546875 -0.640625 
Q 12.796875 0.140625 7.71875 1.703125 
L 7.71875 11.625 
Q 12.109375 9.234375 16.796875 8.0625 
Q 21.484375 6.890625 26.703125 6.890625 
Q 35.15625 6.890625 40.078125 11.328125 
Q 45.015625 15.765625 45.015625 23.390625 
Q 45.015625 31 40.078125 35.4375 
Q 35.15625 39.890625 26.703125 39.890625 
Q 22.75 39.890625 18.8125 39.015625 
Q 14.890625 38.140625 10.796875 36.28125 
z
" id="DejaVuSans-53"/>
      </defs>
      <g transform="translate(109.687325 117.03125)rotate(-90)scale(0.06 -0.06)">
       <use xlink:href="#DejaVuSans-73"/>
       <use x="29.492188" xlink:href="#DejaVuSans-84"/>
       <use x="90.576172" xlink:href="#DejaVuSans-83"/>
       <use x="154.052734" xlink:href="#DejaVuSans-48"/>
       <use x="217.675781" xlink:href="#DejaVuSans-48"/>
       <use x="281.298828" xlink:href="#DejaVuSans-53"/>
      </g>
     </g>
    </g>
    <g id="xtick_7">
     <g id="line2d_7">
      <g>
       <use style="stroke:#000000;stroke-width:0.8;" x="121.5411" xlink:href="#m19a19ba891" y="89.335"/>
      </g>
     </g>
     <g id="text_7">
      <!-- ITS006 -->
      <defs>
       <path d="M 33.015625 40.375 
Q 26.375 40.375 22.484375 35.828125 
Q 18.609375 31.296875 18.609375 23.390625 
Q 18.609375 15.53125 22.484375 10.953125 
Q 26.375 6.390625 33.015625 6.390625 
Q 39.65625 6.390625 43.53125 10.953125 
Q 47.40625 15.53125 47.40625 23.390625 
Q 47.40625 31.296875 43.53125 35.828125 
Q 39.65625 40.375 33.015625 40.375 
z
M 52.59375 71.296875 
L 52.59375 62.3125 
Q 48.875 64.0625 45.09375 64.984375 
Q 41.3125 65.921875 37.59375 65.921875 
Q 27.828125 65.921875 22.671875 59.328125 
Q 17.53125 52.734375 16.796875 39.40625 
Q 19.671875 43.65625 24.015625 45.921875 
Q 28.375 48.1875 33.59375 48.1875 
Q 44.578125 48.1875 50.953125 41.515625 
Q 57.328125 34.859375 57.328125 23.390625 
Q 57.328125 12.15625 50.6875 5.359375 
Q 44.046875 -1.421875 33.015625 -1.421875 
Q 20.359375 -1.421875 13.671875 8.265625 
Q 6.984375 17.96875 6.984375 36.375 
Q 6.984375 53.65625 15.1875 63.9375 
Q 23.390625 74.21875 37.203125 74.21875 
Q 40.921875 74.21875 44.703125 73.484375 
Q 48.484375 72.75 52.59375 71.296875 
z
" id="DejaVuSans-54"/>
      </defs>
      <g transform="translate(123.196725 117.03125)rotate(-90)scale(0.06 -0.06)">
       <use xlink:href="#DejaVuSans-73"/>
       <use x="29.492188" xlink:href="#DejaVuSans-84"/>
       <use x="90.576172" xlink:href="#DejaVuSans-83"/>
       <use x="154.052734" xlink:href="#DejaVuSans-48"/>
       <use x="217.675781" xlink:href="#DejaVuSans-48"/>
       <use x="281.298828" xlink:href="#DejaVuSans-54"/>
      </g>
     </g>
    </g>
    <g id="xtick_8">
     <g id="line2d_8">
      <g>
       <use style="stroke:#000000;stroke-width:0.8;" x="135.0505" xlink:href="#m19a19ba891" y="89.335"/>
      </g>
     </g>
     <g id="text_8">
      <!-- ITS003 -->
      <defs>
       <path d="M 40.578125 39.3125 
Q 47.65625 37.796875 51.625 33 
Q 55.609375 28.21875 55.609375 21.1875 
Q 55.609375 10.40625 48.1875 4.484375 
Q 40.765625 -1.421875 27.09375 -1.421875 
Q 22.515625 -1.421875 17.65625 -0.515625 
Q 12.796875 0.390625 7.625 2.203125 
L 7.625 11.71875 
Q 11.71875 9.328125 16.59375 8.109375 
Q 21.484375 6.890625 26.8125 6.890625 
Q 36.078125 6.890625 40.9375 10.546875 
Q 45.796875 14.203125 45.796875 21.1875 
Q 45.796875 27.640625 41.28125 31.265625 
Q 36.765625 34.90625 28.71875 34.90625 
L 20.21875 34.90625 
L 20.21875 43.015625 
L 29.109375 43.015625 
Q 36.375 43.015625 40.234375 45.921875 
Q 44.09375 48.828125 44.09375 54.296875 
Q 44.09375 59.90625 40.109375 62.90625 
Q 36.140625 65.921875 28.71875 65.921875 
Q 24.65625 65.921875 20.015625 65.03125 
Q 15.375 64.15625 9.8125 62.3125 
L 9.8125 71.09375 
Q 15.4375 72.65625 20.34375 73.4375 
Q 25.25 74.21875 29.59375 74.21875 
Q 40.828125 74.21875 47.359375 69.109375 
Q 53.90625 64.015625 53.90625 55.328125 
Q 53.90625 49.265625 50.4375 45.09375 
Q 46.96875 40.921875 40.578125 39.3125 
z
" id="DejaVuSans-51"/>
      </defs>
      <g transform="translate(136.706125 117.03125)rotate(-90)scale(0.06 -0.06)">
       <use xlink:href="#DejaVuSans-73"/>
       <use x="29.492188" xlink:href="#DejaVuSans-84"/>
       <use x="90.576172" xlink:href="#DejaVuSans-83"/>
       <use x="154.052734" xlink:href="#DejaVuSans-48"/>
       <use x="217.675781" xlink:href="#DejaVuSans-48"/>
       <use x="281.298828" xlink:href="#DejaVuSans-51"/>
      </g>
     </g>
    </g>
    <g id="xtick_9">
     <g id="line2d_9">
      <g>
       <use style="stroke:#000000;stroke-width:0.8;" x="148.5599" xlink:href="#m19a19ba891" y="89.335"/>
      </g>
     </g>
     <g id="text_9">
      <!-- ITS023 -->
      <g transform="translate(150.215525 117.03125)rotate(-90)scale(0.06 -0.06)">
       <use xlink:href="#DejaVuSans-73"/>
       <use x="29.492188" xlink:href="#DejaVuSans-84"/>
       <use x="90.576172" xlink:href="#DejaVuSans-83"/>
       <use x="154.052734" xlink:href="#DejaVuSans-48"/>
       <use x="217.675781" xlink:href="#DejaVuSans-50"/>
       <use x="281.298828" xlink:href="#DejaVuSans-51"/>
      </g>
     </g>
    </g>
    <g id="xtick_10">
     <g id="line2d_10">
      <g>
       <use style="stroke:#000000;stroke-width:0.8;" x="162.0693" xlink:href="#m19a19ba891" y="89.335"/>
      </g>
     </g>
     <g id="text_10">
      <!-- ITS018 -->
      <defs>
       <path d="M 31.78125 34.625 
Q 24.75 34.625 20.71875 30.859375 
Q 16.703125 27.09375 16.703125 20.515625 
Q 16.703125 13.921875 20.71875 10.15625 
Q 24.75 6.390625 31.78125 6.390625 
Q 38.8125 6.390625 42.859375 10.171875 
Q 46.921875 13.96875 46.921875 20.515625 
Q 46.921875 27.09375 42.890625 30.859375 
Q 38.875 34.625 31.78125 34.625 
z
M 21.921875 38.8125 
Q 15.578125 40.375 12.03125 44.71875 
Q 8.5 49.078125 8.5 55.328125 
Q 8.5 64.0625 14.71875 69.140625 
Q 20.953125 74.21875 31.78125 74.21875 
Q 42.671875 74.21875 48.875 69.140625 
Q 55.078125 64.0625 55.078125 55.328125 
Q 55.078125 49.078125 51.53125 44.71875 
Q 48 40.375 41.703125 38.8125 
Q 48.828125 37.15625 52.796875 32.3125 
Q 56.78125 27.484375 56.78125 20.515625 
Q 56.78125 9.90625 50.3125 4.234375 
Q 43.84375 -1.421875 31.78125 -1.421875 
Q 19.734375 -1.421875 13.25 4.234375 
Q 6.78125 9.90625 6.78125 20.515625 
Q 6.78125 27.484375 10.78125 32.3125 
Q 14.796875 37.15625 21.921875 38.8125 
z
M 18.3125 54.390625 
Q 18.3125 48.734375 21.84375 45.5625 
Q 25.390625 42.390625 31.78125 42.390625 
Q 38.140625 42.390625 41.71875 45.5625 
Q 45.3125 48.734375 45.3125 54.390625 
Q 45.3125 60.0625 41.71875 63.234375 
Q 38.140625 66.40625 31.78125 66.40625 
Q 25.390625 66.40625 21.84375 63.234375 
Q 18.3125 60.0625 18.3125 54.390625 
z
" id="DejaVuSans-56"/>
      </defs>
      <g transform="translate(163.724925 117.03125)rotate(-90)scale(0.06 -0.06)">
       <use xlink:href="#DejaVuSans-73"/>
       <use x="29.492188" xlink:href="#DejaVuSans-84"/>
       <use x="90.576172" xlink:href="#DejaVuSans-83"/>
       <use x="154.052734" xlink:href="#DejaVuSans-48"/>
       <use x="217.675781" xlink:href="#DejaVuSans-49"/>
       <use x="281.298828" xlink:href="#DejaVuSans-56"/>
      </g>
     </g>
    </g>
    <g id="xtick_11">
     <g id="line2d_11">
      <g>
       <use style="stroke:#000000;stroke-width:0.8;" x="175.5787" xlink:href="#m19a19ba891" y="89.335"/>
      </g>
     </g>
     <g id="text_11">
      <!-- ITS022 -->
      <g transform="translate(177.234325 117.03125)rotate(-90)scale(0.06 -0.06)">
       <use xlink:href="#DejaVuSans-73"/>
       <use x="29.492188" xlink:href="#DejaVuSans-84"/>
       <use x="90.576172" xlink:href="#DejaVuSans-83"/>
       <use x="154.052734" xlink:href="#DejaVuSans-48"/>
       <use x="217.675781" xlink:href="#DejaVuSans-50"/>
       <use x="281.298828" xlink:href="#DejaVuSans-50"/>
      </g>
     </g>
    </g>
    <g id="xtick_12">
     <g id="line2d_12">
      <g>
       <use style="stroke:#000000;stroke-width:0.8;" x="189.0881" xlink:href="#m19a19ba891" y="89.335"/>
      </g>
     </g>
     <g id="text_12">
      <!-- ITS017 -->
      <defs>
       <path d="M 8.203125 72.90625 
L 55.078125 72.90625 
L 55.078125 68.703125 
L 28.609375 0 
L 18.3125 0 
L 43.21875 64.59375 
L 8.203125 64.59375 
z
" id="DejaVuSans-55"/>
      </defs>
      <g transform="translate(190.743725 117.03125)rotate(-90)scale(0.06 -0.06)">
       <use xlink:href="#DejaVuSans-73"/>
       <use x="29.492188" xlink:href="#DejaVuSans-84"/>
       <use x="90.576172" xlink:href="#DejaVuSans-83"/>
       <use x="154.052734" xlink:href="#DejaVuSans-48"/>
       <use x="217.675781" xlink:href="#DejaVuSans-49"/>
       <use x="281.298828" xlink:href="#DejaVuSans-55"/>
      </g>
     </g>
    </g>
    <g id="xtick_13">
     <g id="line2d_13">
      <g>
       <use style="stroke:#000000;stroke-width:0.8;" x="202.5975" xlink:href="#m19a19ba891" y="89.335"/>
      </g>
     </g>
     <g id="text_13">
      <!-- ITS009 -->
      <defs>
       <path d="M 10.984375 1.515625 
L 10.984375 10.5 
Q 14.703125 8.734375 18.5 7.8125 
Q 22.3125 6.890625 25.984375 6.890625 
Q 35.75 6.890625 40.890625 13.453125 
Q 46.046875 20.015625 46.78125 33.40625 
Q 43.953125 29.203125 39.59375 26.953125 
Q 35.25 24.703125 29.984375 24.703125 
Q 19.046875 24.703125 12.671875 31.3125 
Q 6.296875 37.9375 6.296875 49.421875 
Q 6.296875 60.640625 12.9375 67.421875 
Q 19.578125 74.21875 30.609375 74.21875 
Q 43.265625 74.21875 49.921875 64.515625 
Q 56.59375 54.828125 56.59375 36.375 
Q 56.59375 19.140625 48.40625 8.859375 
Q 40.234375 -1.421875 26.421875 -1.421875 
Q 22.703125 -1.421875 18.890625 -0.6875 
Q 15.09375 0.046875 10.984375 1.515625 
z
M 30.609375 32.421875 
Q 37.25 32.421875 41.125 36.953125 
Q 45.015625 41.5 45.015625 49.421875 
Q 45.015625 57.28125 41.125 61.84375 
Q 37.25 66.40625 30.609375 66.40625 
Q 23.96875 66.40625 20.09375 61.84375 
Q 16.21875 57.28125 16.21875 49.421875 
Q 16.21875 41.5 20.09375 36.953125 
Q 23.96875 32.421875 30.609375 32.421875 
z
" id="DejaVuSans-57"/>
      </defs>
      <g transform="translate(204.253125 117.03125)rotate(-90)scale(0.06 -0.06)">
       <use xlink:href="#DejaVuSans-73"/>
       <use x="29.492188" xlink:href="#DejaVuSans-84"/>
       <use x="90.576172" xlink:href="#DejaVuSans-83"/>
       <use x="154.052734" xlink:href="#DejaVuSans-48"/>
       <use x="217.675781" xlink:href="#DejaVuSans-48"/>
       <use x="281.298828" xlink:href="#DejaVuSans-57"/>
      </g>
     </g>
    </g>
    <g id="xtick_14">
     <g id="line2d_14">
      <g>
       <use style="stroke:#000000;stroke-width:0.8;" x="216.1069" xlink:href="#m19a19ba891" y="89.335"/>
      </g>
     </g>
     <g id="text_14">
      <!-- ITS007 -->
      <g transform="translate(217.762525 117.03125)rotate(-90)scale(0.06 -0.06)">
       <use xlink:href="#DejaVuSans-73"/>
       <use x="29.492188" xlink:href="#DejaVuSans-84"/>
       <use x="90.576172" xlink:href="#DejaVuSans-83"/>
       <use x="154.052734" xlink:href="#DejaVuSans-48"/>
       <use x="217.675781" xlink:href="#DejaVuSans-48"/>
       <use x="281.298828" xlink:href="#DejaVuSans-55"/>
      </g>
     </g>
    </g>
    <g id="xtick_15">
     <g id="line2d_15">
      <g>
       <use style="stroke:#000000;stroke-width:0.8;" x="229.6163" xlink:href="#m19a19ba891" y="89.335"/>
      </g>
     </g>
     <g id="text_15">
      <!-- ITS008 -->
      <g transform="translate(231.271925 117.03125)rotate(-90)scale(0.06 -0.06)">
       <use xlink:href="#DejaVuSans-73"/>
       <use x="29.492188" xlink:href="#DejaVuSans-84"/>
       <use x="90.576172" xlink:href="#DejaVuSans-83"/>
       <use x="154.052734" xlink:href="#DejaVuSans-48"/>
       <use x="217.675781" xlink:href="#DejaVuSans-48"/>
       <use x="281.298828" xlink:href="#DejaVuSans-56"/>
      </g>
     </g>
    </g>
    <g id="xtick_16">
     <g id="line2d_16">
      <g>
       <use style="stroke:#000000;stroke-width:0.8;" x="243.1257" xlink:href="#m19a19ba891" y="89.335"/>
      </g>
     </g>
     <g id="text_16">
      <!-- ITS_016 -->
      <defs>
       <path d="M 50.984375 -16.609375 
L 50.984375 -23.578125 
L -0.984375 -23.578125 
L -0.984375 -16.609375 
z
" id="DejaVuSans-95"/>
      </defs>
      <g transform="translate(244.644919 120.03125)rotate(-90)scale(0.06 -0.06)">
       <use xlink:href="#DejaVuSans-73"/>
       <use x="29.492188" xlink:href="#DejaVuSans-84"/>
       <use x="90.576172" xlink:href="#DejaVuSans-83"/>
       <use x="154.052734" xlink:href="#DejaVuSans-95"/>
       <use x="204.052734" xlink:href="#DejaVuSans-48"/>
       <use x="267.675781" xlink:href="#DejaVuSans-49"/>
       <use x="331.298828" xlink:href="#DejaVuSans-54"/>
      </g>
     </g>
    </g>
    <g id="xtick_17">
     <g id="line2d_17">
      <g>
       <use style="stroke:#000000;stroke-width:0.8;" x="256.6351" xlink:href="#m19a19ba891" y="89.335"/>
      </g>
     </g>
     <g id="text_17">
      <!-- ITS012 -->
      <g transform="translate(258.290725 117.03125)rotate(-90)scale(0.06 -0.06)">
       <use xlink:href="#DejaVuSans-73"/>
       <use x="29.492188" xlink:href="#DejaVuSans-84"/>
       <use x="90.576172" xlink:href="#DejaVuSans-83"/>
       <use x="154.052734" xlink:href="#DejaVuSans-48"/>
       <use x="217.675781" xlink:href="#DejaVuSans-49"/>
       <use x="281.298828" xlink:href="#DejaVuSans-50"/>
      </g>
     </g>
    </g>
    <g id="xtick_18">
     <g id="line2d_18">
      <g>
       <use style="stroke:#000000;stroke-width:0.8;" x="270.1445" xlink:href="#m19a19ba891" y="89.335"/>
      </g>
     </g>
     <g id="text_18">
      <!-- ITS013 -->
      <g transform="translate(271.800125 117.03125)rotate(-90)scale(0.06 -0.06)">
       <use xlink:href="#DejaVuSans-73"/>
       <use x="29.492188" xlink:href="#DejaVuSans-84"/>
       <use x="90.576172" xlink:href="#DejaVuSans-83"/>
       <use x="154.052734" xlink:href="#DejaVuSans-48"/>
       <use x="217.675781" xlink:href="#DejaVuSans-49"/>
       <use x="281.298828" xlink:href="#DejaVuSans-51"/>
      </g>
     </g>
    </g>
    <g id="xtick_19">
     <g id="line2d_19">
      <g>
       <use style="stroke:#000000;stroke-width:0.8;" x="283.6539" xlink:href="#m19a19ba891" y="89.335"/>
      </g>
     </g>
     <g id="text_19">
      <!-- ITS014 -->
      <g transform="translate(285.309525 117.03125)rotate(-90)scale(0.06 -0.06)">
       <use xlink:href="#DejaVuSans-73"/>
       <use x="29.492188" xlink:href="#DejaVuSans-84"/>
       <use x="90.576172" xlink:href="#DejaVuSans-83"/>
       <use x="154.052734" xlink:href="#DejaVuSans-48"/>
       <use x="217.675781" xlink:href="#DejaVuSans-49"/>
       <use x="281.298828" xlink:href="#DejaVuSans-52"/>
      </g>
     </g>
    </g>
    <g id="xtick_20">
     <g id="line2d_20">
      <g>
       <use style="stroke:#000000;stroke-width:0.8;" x="297.1633" xlink:href="#m19a19ba891" y="89.335"/>
      </g>
     </g>
     <g id="text_20">
      <!-- ITS021 -->
      <g transform="translate(298.818925 117.03125)rotate(-90)scale(0.06 -0.06)">
       <use xlink:href="#DejaVuSans-73"/>
       <use x="29.492188" xlink:href="#DejaVuSans-84"/>
       <use x="90.576172" xlink:href="#DejaVuSans-83"/>
       <use x="154.052734" xlink:href="#DejaVuSans-48"/>
       <use x="217.675781" xlink:href="#DejaVuSans-50"/>
       <use x="281.298828" xlink:href="#DejaVuSans-49"/>
      </g>
     </g>
    </g>
    <g id="xtick_21">
     <g id="line2d_21">
      <g>
       <use style="stroke:#000000;stroke-width:0.8;" x="310.6727" xlink:href="#m19a19ba891" y="89.335"/>
      </g>
     </g>
     <g id="text_21">
      <!-- ITS_025 -->
      <g transform="translate(312.191919 120.03125)rotate(-90)scale(0.06 -0.06)">
       <use xlink:href="#DejaVuSans-73"/>
       <use x="29.492188" xlink:href="#DejaVuSans-84"/>
       <use x="90.576172" xlink:href="#DejaVuSans-83"/>
       <use x="154.052734" xlink:href="#DejaVuSans-95"/>
       <use x="204.052734" xlink:href="#DejaVuSans-48"/>
       <use x="267.675781" xlink:href="#DejaVuSans-50"/>
       <use x="331.298828" xlink:href="#DejaVuSans-53"/>
      </g>
     </g>
    </g>
    <g id="xtick_22">
     <g id="line2d_22">
      <g>
       <use style="stroke:#000000;stroke-width:0.8;" x="324.1821" xlink:href="#m19a19ba891" y="89.335"/>
      </g>
     </g>
     <g id="text_22">
      <!-- ITS015 -->
      <g transform="translate(325.837725 117.03125)rotate(-90)scale(0.06 -0.06)">
       <use xlink:href="#DejaVuSans-73"/>
       <use x="29.492188" xlink:href="#DejaVuSans-84"/>
       <use x="90.576172" xlink:href="#DejaVuSans-83"/>
       <use x="154.052734" xlink:href="#DejaVuSans-48"/>
       <use x="217.675781" xlink:href="#DejaVuSans-49"/>
       <use x="281.298828" xlink:href="#DejaVuSans-53"/>
      </g>
     </g>
    </g>
    <g id="xtick_23">
     <g id="line2d_23">
      <g>
       <use style="stroke:#000000;stroke-width:0.8;" x="337.6915" xlink:href="#m19a19ba891" y="89.335"/>
      </g>
     </g>
     <g id="text_23">
      <!-- ITS016 -->
      <g transform="translate(339.347125 117.03125)rotate(-90)scale(0.06 -0.06)">
       <use xlink:href="#DejaVuSans-73"/>
       <use x="29.492188" xlink:href="#DejaVuSans-84"/>
       <use x="90.576172" xlink:href="#DejaVuSans-83"/>
       <use x="154.052734" xlink:href="#DejaVuSans-48"/>
       <use x="217.675781" xlink:href="#DejaVuSans-49"/>
       <use x="281.298828" xlink:href="#DejaVuSans-54"/>
      </g>
     </g>
    </g>
    <g id="xtick_24">
     <g id="line2d_24">
      <g>
       <use style="stroke:#000000;stroke-width:0.8;" x="351.2009" xlink:href="#m19a19ba891" y="89.335"/>
      </g>
     </g>
     <g id="text_24">
      <!-- ITS020 -->
      <g transform="translate(352.856525 117.03125)rotate(-90)scale(0.06 -0.06)">
       <use xlink:href="#DejaVuSans-73"/>
       <use x="29.492188" xlink:href="#DejaVuSans-84"/>
       <use x="90.576172" xlink:href="#DejaVuSans-83"/>
       <use x="154.052734" xlink:href="#DejaVuSans-48"/>
       <use x="217.675781" xlink:href="#DejaVuSans-50"/>
       <use x="281.298828" xlink:href="#DejaVuSans-48"/>
      </g>
     </g>
    </g>
    <g id="xtick_25">
     <g id="line2d_25">
      <g>
       <use style="stroke:#000000;stroke-width:0.8;" x="364.7103" xlink:href="#m19a19ba891" y="89.335"/>
      </g>
     </g>
     <g id="text_25">
      <!-- ITS019 -->
      <g transform="translate(366.365925 117.03125)rotate(-90)scale(0.06 -0.06)">
       <use xlink:href="#DejaVuSans-73"/>
       <use x="29.492188" xlink:href="#DejaVuSans-84"/>
       <use x="90.576172" xlink:href="#DejaVuSans-83"/>
       <use x="154.052734" xlink:href="#DejaVuSans-48"/>
       <use x="217.675781" xlink:href="#DejaVuSans-49"/>
       <use x="281.298828" xlink:href="#DejaVuSans-57"/>
      </g>
     </g>
    </g>
    <g id="xtick_26">
     <g id="line2d_26">
      <g>
       <use style="stroke:#000000;stroke-width:0.8;" x="378.2197" xlink:href="#m19a19ba891" y="89.335"/>
      </g>
     </g>
     <g id="text_26">
      <!-- ITS011 -->
      <g transform="translate(379.875325 117.03125)rotate(-90)scale(0.06 -0.06)">
       <use xlink:href="#DejaVuSans-73"/>
       <use x="29.492188" xlink:href="#DejaVuSans-84"/>
       <use x="90.576172" xlink:href="#DejaVuSans-83"/>
       <use x="154.052734" xlink:href="#DejaVuSans-48"/>
       <use x="217.675781" xlink:href="#DejaVuSans-49"/>
       <use x="281.298828" xlink:href="#DejaVuSans-49"/>
      </g>
     </g>
    </g>
   </g>
   <g id="matplotlib.axis_2">
    <g id="ytick_1">
     <g id="line2d_27">
      <defs>
       <path d="M 0 0 
L -3.5 0 
" id="mb4a07c52c7" style="stroke:#000000;stroke-width:0.8;"/>
      </defs>
      <g>
       <use style="stroke:#000000;stroke-width:0.8;" x="33.73" xlink:href="#mb4a07c52c7" y="89.335"/>
      </g>
     </g>
     <g id="text_27">
      <!-- 0.0 -->
      <defs>
       <path d="M 10.6875 12.40625 
L 21 12.40625 
L 21 0 
L 10.6875 0 
z
" id="DejaVuSans-46"/>
      </defs>
      <g transform="translate(10.826875 93.134219)scale(0.1 -0.1)">
       <use xlink:href="#DejaVuSans-48"/>
       <use x="63.623047" xlink:href="#DejaVuSans-46"/>
       <use x="95.410156" xlink:href="#DejaVuSans-48"/>
      </g>
     </g>
    </g>
    <g id="ytick_2">
     <g id="line2d_28">
      <g>
       <use style="stroke:#000000;stroke-width:0.8;" x="33.73" xlink:href="#mb4a07c52c7" y="52.0475"/>
      </g>
     </g>
     <g id="text_28">
      <!-- 0.5 -->
      <g transform="translate(10.826875 55.846719)scale(0.1 -0.1)">
       <use xlink:href="#DejaVuSans-48"/>
       <use x="63.623047" xlink:href="#DejaVuSans-46"/>
       <use x="95.410156" xlink:href="#DejaVuSans-53"/>
      </g>
     </g>
    </g>
    <g id="ytick_3">
     <g id="line2d_29">
      <g>
       <use style="stroke:#000000;stroke-width:0.8;" x="33.73" xlink:href="#mb4a07c52c7" y="14.76"/>
      </g>
     </g>
     <g id="text_29">
      <!-- 1.0 -->
      <g transform="translate(10.826875 18.559219)scale(0.1 -0.1)">
       <use xlink:href="#DejaVuSans-49"/>
       <use x="63.623047" xlink:href="#DejaVuSans-46"/>
       <use x="95.410156" xlink:href="#DejaVuSans-48"/>
      </g>
     </g>
    </g>
   </g>
   <g id="line2d_30">
    <path clip-path="url(#p5f3f3eeb1b)" d="M 33.73 89.335 
L 384.9744 89.335 
" style="fill:none;stroke:#000000;stroke-linecap:square;stroke-width:2;"/>
   </g>
   <g id="patch_3">
    <path d="M 33.73 89.335 
L 33.73 14.76 
" style="fill:none;stroke:#000000;stroke-linecap:square;stroke-linejoin:miter;stroke-width:0.8;"/>
   </g>
  </g>
  <g id="axes_2">
   <g id="patch_4">
    <path clip-path="url(#p6126ddeb85)" d="M 33.73 130.625 
L 78.761333 130.625 
L 78.761333 160.455 
L 33.73 160.455 
z
" style="fill:#a6df99;stroke:#a6df99;stroke-linejoin:miter;"/>
   </g>
   <g id="patch_5">
    <path clip-path="url(#p6126ddeb85)" d="M 168.824 130.625 
L 213.855333 130.625 
L 213.855333 160.455 
L 168.824 160.455 
z
" style="fill:#85bc9e;stroke:#85bc9e;stroke-linejoin:miter;"/>
   </g>
   <g id="patch_6">
    <path clip-path="url(#p6126ddeb85)" d="M 303.918 130.625 
L 348.949333 130.625 
L 348.949333 160.455 
L 303.918 160.455 
z
" style="fill:#dda4d2;stroke:#dda4d2;stroke-linejoin:miter;"/>
   </g>
   <g id="patch_7">
    <path clip-path="url(#p6126ddeb85)" d="M 439.012 130.625 
L 484.043333 130.625 
L 484.043333 160.455 
L 439.012 160.455 
z
" style="fill:#d1cb91;stroke:#d1cb91;stroke-linejoin:miter;"/>
   </g>
   <g id="patch_8">
    <path clip-path="url(#p6126ddeb85)" d="M 574.106 130.625 
L 619.137333 130.625 
L 619.137333 160.455 
L 574.106 160.455 
z
" style="fill:#a3a4bc;stroke:#a3a4bc;stroke-linejoin:miter;"/>
   </g>
   <g id="patch_9">
    <path clip-path="url(#p6126ddeb85)" d="M 33.73 175.37 
L 78.761333 175.37 
L 78.761333 205.2 
L 33.73 205.2 
z
" style="fill:#f885c6;stroke:#f885c6;stroke-linejoin:miter;"/>
   </g>
   <g id="text_30">
    <!-- A3-A3t-A3ae-A3... -->
    <defs>
     <path d="M 34.1875 63.1875 
L 20.796875 26.90625 
L 47.609375 26.90625 
z
M 28.609375 72.90625 
L 39.796875 72.90625 
L 67.578125 0 
L 57.328125 0 
L 50.6875 18.703125 
L 17.828125 18.703125 
L 11.1875 0 
L 0.78125 0 
z
" id="DejaVuSans-65"/>
     <path d="M 4.890625 31.390625 
L 31.203125 31.390625 
L 31.203125 23.390625 
L 4.890625 23.390625 
z
" id="DejaVuSans-45"/>
     <path d="M 18.3125 70.21875 
L 18.3125 54.6875 
L 36.8125 54.6875 
L 36.8125 47.703125 
L 18.3125 47.703125 
L 18.3125 18.015625 
Q 18.3125 11.328125 20.140625 9.421875 
Q 21.96875 7.515625 27.59375 7.515625 
L 36.8125 7.515625 
L 36.8125 0 
L 27.59375 0 
Q 17.1875 0 13.234375 3.875 
Q 9.28125 7.765625 9.28125 18.015625 
L 9.28125 47.703125 
L 2.6875 47.703125 
L 2.6875 54.6875 
L 9.28125 54.6875 
L 9.28125 70.21875 
z
" id="DejaVuSans-116"/>
     <path d="M 34.28125 27.484375 
Q 23.390625 27.484375 19.1875 25 
Q 14.984375 22.515625 14.984375 16.5 
Q 14.984375 11.71875 18.140625 8.90625 
Q 21.296875 6.109375 26.703125 6.109375 
Q 34.1875 6.109375 38.703125 11.40625 
Q 43.21875 16.703125 43.21875 25.484375 
L 43.21875 27.484375 
z
M 52.203125 31.203125 
L 52.203125 0 
L 43.21875 0 
L 43.21875 8.296875 
Q 40.140625 3.328125 35.546875 0.953125 
Q 30.953125 -1.421875 24.3125 -1.421875 
Q 15.921875 -1.421875 10.953125 3.296875 
Q 6 8.015625 6 15.921875 
Q 6 25.140625 12.171875 29.828125 
Q 18.359375 34.515625 30.609375 34.515625 
L 43.21875 34.515625 
L 43.21875 35.40625 
Q 43.21875 41.609375 39.140625 45 
Q 35.0625 48.390625 27.6875 48.390625 
Q 23 48.390625 18.546875 47.265625 
Q 14.109375 46.140625 10.015625 43.890625 
L 10.015625 52.203125 
Q 14.9375 54.109375 19.578125 55.046875 
Q 24.21875 56 28.609375 56 
Q 40.484375 56 46.34375 49.84375 
Q 52.203125 43.703125 52.203125 31.203125 
z
" id="DejaVuSans-97"/>
     <path d="M 56.203125 29.59375 
L 56.203125 25.203125 
L 14.890625 25.203125 
Q 15.484375 15.921875 20.484375 11.0625 
Q 25.484375 6.203125 34.421875 6.203125 
Q 39.59375 6.203125 44.453125 7.46875 
Q 49.3125 8.734375 54.109375 11.28125 
L 54.109375 2.78125 
Q 49.265625 0.734375 44.1875 -0.34375 
Q 39.109375 -1.421875 33.890625 -1.421875 
Q 20.796875 -1.421875 13.15625 6.1875 
Q 5.515625 13.8125 5.515625 26.8125 
Q 5.515625 40.234375 12.765625 48.109375 
Q 20.015625 56 32.328125 56 
Q 43.359375 56 49.78125 48.890625 
Q 56.203125 41.796875 56.203125 29.59375 
z
M 47.21875 32.234375 
Q 47.125 39.59375 43.09375 43.984375 
Q 39.0625 48.390625 32.421875 48.390625 
Q 24.90625 48.390625 20.390625 44.140625 
Q 15.875 39.890625 15.1875 32.171875 
z
" id="DejaVuSans-101"/>
    </defs>
    <g transform="translate(87.7676 147.7475)scale(0.08 -0.08)">
     <use xlink:href="#DejaVuSans-65"/>
     <use x="68.408203" xlink:href="#DejaVuSans-51"/>
     <use x="132.03125" xlink:href="#DejaVuSans-45"/>
     <use x="165.865234" xlink:href="#DejaVuSans-65"/>
     <use x="234.273438" xlink:href="#DejaVuSans-51"/>
     <use x="297.896484" xlink:href="#DejaVuSans-116"/>
     <use x="337.105469" xlink:href="#DejaVuSans-45"/>
     <use x="370.939453" xlink:href="#DejaVuSans-65"/>
     <use x="439.347656" xlink:href="#DejaVuSans-51"/>
     <use x="502.970703" xlink:href="#DejaVuSans-97"/>
     <use x="564.25" xlink:href="#DejaVuSans-101"/>
     <use x="625.773438" xlink:href="#DejaVuSans-45"/>
     <use x="659.607422" xlink:href="#DejaVuSans-65"/>
     <use x="728.015625" xlink:href="#DejaVuSans-51"/>
     <use x="791.638672" xlink:href="#DejaVuSans-46"/>
     <use x="823.425781" xlink:href="#DejaVuSans-46"/>
     <use x="855.212891" xlink:href="#DejaVuSans-46"/>
    </g>
   </g>
   <g id="text_31">
    <!-- A3-A3t-A3af-A3... -->
    <defs>
     <path d="M 37.109375 75.984375 
L 37.109375 68.5 
L 28.515625 68.5 
Q 23.6875 68.5 21.796875 66.546875 
Q 19.921875 64.59375 19.921875 59.515625 
L 19.921875 54.6875 
L 34.71875 54.6875 
L 34.71875 47.703125 
L 19.921875 47.703125 
L 19.921875 0 
L 10.890625 0 
L 10.890625 47.703125 
L 2.296875 47.703125 
L 2.296875 54.6875 
L 10.890625 54.6875 
L 10.890625 58.5 
Q 10.890625 67.625 15.140625 71.796875 
Q 19.390625 75.984375 28.609375 75.984375 
z
" id="DejaVuSans-102"/>
    </defs>
    <g transform="translate(222.8616 147.7475)scale(0.08 -0.08)">
     <use xlink:href="#DejaVuSans-65"/>
     <use x="68.408203" xlink:href="#DejaVuSans-51"/>
     <use x="132.03125" xlink:href="#DejaVuSans-45"/>
     <use x="165.865234" xlink:href="#DejaVuSans-65"/>
     <use x="234.273438" xlink:href="#DejaVuSans-51"/>
     <use x="297.896484" xlink:href="#DejaVuSans-116"/>
     <use x="337.105469" xlink:href="#DejaVuSans-45"/>
     <use x="370.939453" xlink:href="#DejaVuSans-65"/>
     <use x="439.347656" xlink:href="#DejaVuSans-51"/>
     <use x="502.970703" xlink:href="#DejaVuSans-97"/>
     <use x="564.25" xlink:href="#DejaVuSans-102"/>
     <use x="593.955078" xlink:href="#DejaVuSans-45"/>
     <use x="627.789062" xlink:href="#DejaVuSans-65"/>
     <use x="696.197266" xlink:href="#DejaVuSans-51"/>
     <use x="759.820312" xlink:href="#DejaVuSans-46"/>
     <use x="791.607422" xlink:href="#DejaVuSans-46"/>
     <use x="823.394531" xlink:href="#DejaVuSans-46"/>
    </g>
   </g>
   <g id="text_32">
    <!-- A3-A3ac-A3ak -->
    <defs>
     <path d="M 48.78125 52.59375 
L 48.78125 44.1875 
Q 44.96875 46.296875 41.140625 47.34375 
Q 37.3125 48.390625 33.40625 48.390625 
Q 24.65625 48.390625 19.8125 42.84375 
Q 14.984375 37.3125 14.984375 27.296875 
Q 14.984375 17.28125 19.8125 11.734375 
Q 24.65625 6.203125 33.40625 6.203125 
Q 37.3125 6.203125 41.140625 7.25 
Q 44.96875 8.296875 48.78125 10.40625 
L 48.78125 2.09375 
Q 45.015625 0.34375 40.984375 -0.53125 
Q 36.96875 -1.421875 32.421875 -1.421875 
Q 20.0625 -1.421875 12.78125 6.34375 
Q 5.515625 14.109375 5.515625 27.296875 
Q 5.515625 40.671875 12.859375 48.328125 
Q 20.21875 56 33.015625 56 
Q 37.15625 56 41.109375 55.140625 
Q 45.0625 54.296875 48.78125 52.59375 
z
" id="DejaVuSans-99"/>
     <path d="M 9.078125 75.984375 
L 18.109375 75.984375 
L 18.109375 31.109375 
L 44.921875 54.6875 
L 56.390625 54.6875 
L 27.390625 29.109375 
L 57.625 0 
L 45.90625 0 
L 18.109375 26.703125 
L 18.109375 0 
L 9.078125 0 
z
" id="DejaVuSans-107"/>
    </defs>
    <g transform="translate(357.9556 147.7475)scale(0.08 -0.08)">
     <use xlink:href="#DejaVuSans-65"/>
     <use x="68.408203" xlink:href="#DejaVuSans-51"/>
     <use x="132.03125" xlink:href="#DejaVuSans-45"/>
     <use x="165.865234" xlink:href="#DejaVuSans-65"/>
     <use x="234.273438" xlink:href="#DejaVuSans-51"/>
     <use x="297.896484" xlink:href="#DejaVuSans-97"/>
     <use x="359.175781" xlink:href="#DejaVuSans-99"/>
     <use x="414.15625" xlink:href="#DejaVuSans-45"/>
     <use x="447.990234" xlink:href="#DejaVuSans-65"/>
     <use x="516.398438" xlink:href="#DejaVuSans-51"/>
     <use x="580.021484" xlink:href="#DejaVuSans-97"/>
     <use x="641.300781" xlink:href="#DejaVuSans-107"/>
    </g>
   </g>
   <g id="text_33">
    <!-- A3-A3t-A3al -->
    <defs>
     <path d="M 9.421875 75.984375 
L 18.40625 75.984375 
L 18.40625 0 
L 9.421875 0 
z
" id="DejaVuSans-108"/>
    </defs>
    <g transform="translate(493.0496 147.7475)scale(0.08 -0.08)">
     <use xlink:href="#DejaVuSans-65"/>
     <use x="68.408203" xlink:href="#DejaVuSans-51"/>
     <use x="132.03125" xlink:href="#DejaVuSans-45"/>
     <use x="165.865234" xlink:href="#DejaVuSans-65"/>
     <use x="234.273438" xlink:href="#DejaVuSans-51"/>
     <use x="297.896484" xlink:href="#DejaVuSans-116"/>
     <use x="337.105469" xlink:href="#DejaVuSans-45"/>
     <use x="370.939453" xlink:href="#DejaVuSans-65"/>
     <use x="439.347656" xlink:href="#DejaVuSans-51"/>
     <use x="502.970703" xlink:href="#DejaVuSans-97"/>
     <use x="564.25" xlink:href="#DejaVuSans-108"/>
    </g>
   </g>
   <g id="text_34">
    <!-- A4 -->
    <g transform="translate(628.1436 147.7475)scale(0.08 -0.08)">
     <use xlink:href="#DejaVuSans-65"/>
     <use x="68.408203" xlink:href="#DejaVuSans-52"/>
    </g>
   </g>
   <g id="text_35">
    <!-- A3 -->
    <g transform="translate(87.7676 192.4925)scale(0.08 -0.08)">
     <use xlink:href="#DejaVuSans-65"/>
     <use x="68.408203" xlink:href="#DejaVuSans-51"/>
    </g>
   </g>
  </g>
 </g>
 <defs>
  <clipPath id="p5f3f3eeb1b">
   <rect height="74.575" width="675.47" x="33.73" y="14.76"/>
  </clipPath>
  <clipPath id="p6126ddeb85">
   <rect height="74.575" width="675.47" x="33.73" y="130.625"/>
  </clipPath>
 </defs>
</svg>
